<?xml version="1.0" encoding="UTF-8"?><svg id="Laag_2" xmlns="http://www.w3.org/2000/svg" xmlns:xlink="http://www.w3.org/1999/xlink" viewBox="0 0 404.17 147.87"><defs><style>.cls-1,.cls-2{fill:none;}.cls-3{clip-path:url(#clippath);}.cls-4{fill:#191814;}.cls-2{stroke:#191814;stroke-miterlimit:10;stroke-width:10.27px;}</style><clipPath id="clippath"><rect class="cls-1" width="404.17" height="147.87"/></clipPath></defs><g id="Laag_1-2"><path class="cls-4" d="M49.41,89.25c2.91,5.63,7.88,8.63,14.44,8.63s11.26-3.19,11.26-8.35c0-6-4.5-8.07-10.13-10.6l-4.41-1.97c-9.38-4.13-15.76-9-15.76-18.95s7.22-16.6,17.73-16.6c8.16,0,14.16,3.28,18.2,10.04l-7.6,4.97c-2.44-4.13-5.63-6.19-10.41-6.19-5.16,0-8.16,3-8.16,7.41,0,5.07,3.09,7.03,10.03,10.13l4.41,1.97c9.66,4.31,16.04,8.72,16.04,19.51,0,11.72-9.01,17.63-21.11,17.63-10.79,0-18.66-5.25-22.98-13.41l8.44-4.22"/><path class="cls-4" d="M95.61,74.15c0-18.85,14.35-32.73,32.55-32.73,11.82,0,19.98,4.6,25.51,12.38l-7.69,5.44c-4.22-5.72-9.66-8.72-18.1-8.72-12.66,0-21.86,10.13-21.86,23.64s9.38,23.64,22.23,23.64c8.25,0,14.35-3.1,19.13-9.28l7.79,5.35c-6.57,8.72-14.91,13.04-27.29,13.04-18.2,0-32.26-13.88-32.26-32.73"/><polyline class="cls-4" points="208.96 42.26 219 42.26 219 106.04 208.96 106.04 208.96 86.53 178.39 86.53 178.39 106.04 168.35 106.04 168.35 42.26 178.39 42.26 178.39 77.62 208.96 77.62 208.96 42.26"/><path class="cls-4" d="M234.12,74.15c0-18.85,14.63-32.73,32.92-32.73s32.92,13.88,32.92,32.73-14.63,32.73-32.92,32.73-32.92-13.88-32.92-32.73m55.43,0c0-13.51-9.29-23.64-22.51-23.64s-22.51,10.13-22.51,23.64,9.29,23.64,22.51,23.64,22.51-10.13,22.51-23.64Z"/><path class="cls-4" d="M309.79,42.26h11.35l12.76,20.17,12.76-20.17h10.6s-18.01,28.51-18.1,28.51l22.32,35.27h-11.35l-16.6-26.26-16.6,26.26h-10.6l21.85-34.61c0-.09-18.38-29.17-18.38-29.17"/><g class="cls-3"><rect class="cls-2" x="5.08" y="5.13" width="393.96" height="137.6"/></g></g></svg>